<svg width="35" height="31" viewBox="0 0 35 31" fill="none" xmlns="http://www.w3.org/2000/svg">
<path d="M7.71875 3.06325V5.23352C7.73953 6.35382 9.40319 6.35541 9.42397 5.23352V3.90707H22.5719C23.6842 3.88949 23.6986 2.22263 22.5719 2.20185H9.42397V0.867416C9.42397 0.395985 9.04202 0.015625 8.57218 0.015625C8.10075 0.015625 7.72039 0.397577 7.72039 0.867416C7.72198 0.884996 7.72039 3.04885 7.72039 3.06325H7.71875Z" fill="#464646"/>
<path d="M31.7621 2.20185H26.8989V0.867416C26.8989 0.395985 26.5169 0.015625 26.0471 0.015625C25.5756 0.015625 25.1953 0.397577 25.1953 0.867416V5.23356C25.2129 6.35545 26.8829 6.35067 26.9005 5.23356V3.90711H31.7637C32.2607 3.90711 32.6507 4.29705 32.6507 4.79408V27.4251C32.6507 27.9221 32.2608 28.312 31.7637 28.312H2.85192C2.35492 28.312 1.96494 27.9221 1.96494 27.4251V4.79408C1.96494 4.29708 2.35489 3.90711 2.85192 3.90711H5.08609C5.55752 3.90711 5.93788 3.52516 5.93788 3.05532C5.93788 2.58389 5.55593 2.20353 5.08609 2.20353H2.85192C1.42318 2.20353 0.259766 3.36535 0.259766 4.79568V27.4266C0.259766 28.8554 1.42323 30.0188 2.85192 30.0188H31.7621C33.1908 30.0188 34.3542 28.857 34.3542 27.4266V4.79404C34.3542 3.36531 33.1908 2.20185 31.7621 2.20185Z" fill="#464646"/>
<path d="M3.73242 9.18371V24.8134C3.73242 25.7627 4.50431 26.5346 5.45519 26.5346H24.2028C24.663 26.5346 25.0961 26.3556 25.4206 26.0295L30.3636 21.0865C30.6896 20.7621 30.8686 20.329 30.8686 19.8687V9.18371C30.8686 8.23442 30.0967 7.46094 29.1458 7.46094H5.45523C4.50595 7.46094 3.73242 8.23283 3.73242 9.18371ZM25.4224 23.6102L25.432 21.0819H27.9506L25.4224 23.6102ZM29.1636 9.18371V19.3766H25.432C24.4827 19.3766 23.7092 20.1485 23.7092 21.0993V24.8294L5.43621 24.8134L5.45379 9.16613L29.162 9.18371L29.1636 9.18371Z" fill="#464646"/>
<path d="M10.0238 13.4005H11.4158C12.5361 13.3814 12.5361 11.7145 11.4158 11.6953H10.0238C8.90352 11.7145 8.90352 13.3813 10.0238 13.4005Z" fill="#464646"/>
<path d="M16.6098 13.4005H18.0001C19.1204 13.3814 19.1204 11.7145 18.0001 11.6953H16.6098C15.4895 11.7145 15.4895 13.3813 16.6098 13.4005Z" fill="#464646"/>
<path d="M23.1976 13.4005H24.5896C25.7099 13.3814 25.7099 11.7145 24.5896 11.6953H23.1976C22.0773 11.7145 22.0773 13.3813 23.1976 13.4005Z" fill="#464646"/>
<path d="M10.0238 17.8537H11.4158C12.5361 17.8345 12.5361 16.1676 11.4158 16.1484H10.0238C8.90352 16.1676 8.90352 17.8345 10.0238 17.8537Z" fill="#464646"/>
<path d="M16.6098 17.8537H18.0001C19.1204 17.8345 19.1204 16.1676 18.0001 16.1484H16.6098C15.4895 16.1676 15.4895 17.8345 16.6098 17.8537Z" fill="#464646"/>
<path d="M23.1976 17.8537H24.5896C25.7099 17.8345 25.7099 16.1676 24.5896 16.1484H23.1976C22.0773 16.1676 22.0773 17.8345 23.1976 17.8537Z" fill="#464646"/>
<path d="M10.0238 22.3068H11.4158C12.5361 22.2876 12.5361 20.6208 11.4158 20.6016H10.0238C8.90352 20.6207 8.90352 22.2876 10.0238 22.3068Z" fill="#464646"/>
<path d="M16.6098 22.3068H18.0001C19.1204 22.2876 19.1204 20.6208 18.0001 20.6016H16.6098C15.4895 20.6207 15.4895 22.2876 16.6098 22.3068Z" fill="#464646"/>
</svg>
