<svg width="24" height="24" viewBox="0 0 24 24" fill="none" xmlns="http://www.w3.org/2000/svg">
<path d="M2.61356 12.0152C2.61 12.01 2.60648 12.005 2.60302 12C2.60648 11.995 2.61 11.99 2.61356 11.9848C2.74268 11.7993 2.93434 11.5325 3.18181 11.2116C3.67738 10.5689 4.39356 9.71328 5.27651 8.85943C7.06226 7.13254 9.44027 5.5 12 5.5C14.5597 5.5 16.9377 7.13254 18.7235 8.85943C19.6064 9.71328 20.3226 10.5689 20.8182 11.2116C21.0657 11.5325 21.2573 11.7993 21.3864 11.9848C21.39 11.99 21.3935 11.995 21.397 12C21.3935 12.005 21.39 12.01 21.3864 12.0152C21.2573 12.2007 21.0657 12.4675 20.8182 12.7884C20.3226 13.4311 19.6064 14.2867 18.7235 15.1406C16.9377 16.8675 14.5597 18.5 12 18.5C9.44027 18.5 7.06226 16.8675 5.27651 15.1406C4.39356 14.2867 3.67738 13.4311 3.18181 12.7884C2.93434 12.4675 2.74268 12.2007 2.61356 12.0152Z" stroke="#808080"/>
<circle cx="12" cy="12" r="3.5" stroke="#808080"/>
<path d="M4 20L20 4" stroke="white" stroke-width="4"/>
<path d="M4 20L20 4" stroke="#808080"/>
</svg>
