<svg width="40" height="43" viewBox="0 0 40 43" fill="none" xmlns="http://www.w3.org/2000/svg">
<path d="M11.2199 25.823H21.721C24.2022 25.823 26.2214 23.8038 26.2214 21.3225V10.8214C26.2214 8.34016 24.2022 6.32095 21.721 6.32095H11.2199C8.7386 6.32095 6.71939 8.34016 6.71939 10.8214V21.3225C6.71939 23.8038 8.7386 25.823 11.2199 25.823ZM11.2199 22.8227C10.6018 22.8227 10.0707 22.4462 9.84122 21.9106L12.759 19.4188L16.4119 22.8227H11.2214H11.2199ZM23.2211 21.3225C23.2211 22.1506 22.5491 22.8227 21.721 22.8227H20.8104L19.5667 21.6646L23.2211 19.4728V21.3225ZM9.7197 10.8214C9.7197 9.99334 10.3918 9.32127 11.2199 9.32127H21.721C22.5491 9.32127 23.2211 9.99334 23.2211 10.8214V15.973L17.282 19.5358L14.8412 17.2616C13.6756 16.0945 11.7689 16.093 10.6738 17.1911L9.7197 18.0237V10.8214ZM17.2205 12.3216C17.2205 11.4935 17.8926 10.8214 18.7207 10.8214C19.5487 10.8214 20.2208 11.4935 20.2208 12.3216C20.2208 13.1497 19.5487 13.8217 18.7207 13.8217C17.8926 13.8217 17.2205 13.1497 17.2205 12.3216ZM35.2224 0.320312H5.21923C2.73796 0.320312 0.71875 2.33953 0.71875 4.82079V37.8243C0.71875 40.3055 2.73796 42.3248 5.21923 42.3248H35.2224C37.7037 42.3248 39.7229 40.3055 39.7229 37.8243V4.82079C39.7229 2.33953 37.7037 0.320312 35.2224 0.320312ZM36.7226 37.8243C36.7226 38.6524 36.0505 39.3244 35.2224 39.3244H5.21923C4.39114 39.3244 3.71907 38.6524 3.71907 37.8243V4.82079C3.71907 3.9927 4.39114 3.32063 5.21923 3.32063H35.2224C36.0505 3.32063 36.7226 3.9927 36.7226 4.82079V37.8243ZM33.7222 10.8214C33.7222 11.651 33.0517 12.3216 32.2221 12.3216H29.2218C28.3922 12.3216 27.7216 11.651 27.7216 10.8214C27.7216 9.99184 28.3922 9.32127 29.2218 9.32127H32.2221C33.0517 9.32127 33.7222 9.99184 33.7222 10.8214ZM33.7222 16.8221C33.7222 17.6516 33.0517 18.3222 32.2221 18.3222H29.2218C28.3922 18.3222 27.7216 17.6516 27.7216 16.8221C27.7216 15.9925 28.3922 15.3219 29.2218 15.3219H32.2221C33.0517 15.3219 33.7222 15.9925 33.7222 16.8221ZM33.7222 22.8227C33.7222 23.6523 33.0517 24.3229 32.2221 24.3229H29.2218C28.3922 24.3229 27.7216 23.6523 27.7216 22.8227C27.7216 21.9931 28.3922 21.3225 29.2218 21.3225H32.2221C33.0517 21.3225 33.7222 21.9931 33.7222 22.8227ZM33.7222 28.8233C33.7222 29.6529 33.0517 30.3235 32.2221 30.3235H8.21954C7.38996 30.3235 6.71939 29.6529 6.71939 28.8233C6.71939 27.9937 7.38996 27.3232 8.21954 27.3232H32.2221C33.0517 27.3232 33.7222 27.9937 33.7222 28.8233ZM33.7222 34.824C33.7222 35.6536 33.0517 36.3241 32.2221 36.3241H8.21954C7.38996 36.3241 6.71939 35.6536 6.71939 34.824C6.71939 33.9944 7.38996 33.3238 8.21954 33.3238H32.2221C33.0517 33.3238 33.7222 33.9944 33.7222 34.824Z" fill="black"/>
</svg>
