<svg width="683" height="683" viewBox="0 0 683 683" fill="none" xmlns="http://www.w3.org/2000/svg">
<g clip-path="url(#clip0_2725_24115)">
<path d="M379.333 2.67355C370.8 6.00688 363.067 13.4735 358.933 22.5402C356.133 28.5402 355.733 31.0735 356.267 39.2069C357.333 54.4069 364.267 64.6736 378 70.9402L384.667 74.0069L469.333 74.4069L553.867 74.8069L420.933 207.74C275.467 353.34 282.267 345.874 282.267 362.007C282.267 382.674 298.133 398.674 318.667 398.674C336.133 398.674 327.867 406.007 474.267 259.607L606.533 127.474L606.933 212.674L607.333 298.007L610.667 304.54C624.667 332.007 663.333 331.874 676.933 304.274L680.667 296.674V162.674V28.6735L677.867 22.5402C673.733 13.7402 665.733 6.14021 656.8 2.80688C649.333 0.00688025 648.4 0.00688025 517.6 0.140214C390.933 0.140214 385.733 0.273547 379.333 2.67355Z" fill="#666666"/>
<path d="M60.4 6.66976C34.8 11.8698 12.8 32.5364 4.4 59.3364C2.13333 66.9364 2 79.2031 2 344.003V620.67L4.93333 630.003C8.53333 641.603 16.2667 653.736 25.6 662.803C34 670.803 50.5333 679.203 61.8667 681.203C67.3333 682.27 154.533 682.67 341.867 682.67C643.733 682.67 622 683.336 640.533 673.736C659.733 663.736 675.067 642.803 678.533 621.603C679.6 615.336 680 576.27 679.733 492.936L679.333 373.203L674 377.603C664.667 385.47 651.467 391.87 640 394.003C637.467 394.536 634.267 395.203 633.067 395.47C630.8 396.136 630.667 402.536 630.667 504.403C630.667 606.803 630.533 612.936 628.133 618.003C625.2 624.403 620.933 628.536 614.4 631.336C610 633.07 580.267 633.336 340.4 633.336C82.2667 633.336 71.0667 633.203 66 630.803C58.5333 627.47 53.8667 621.336 52.1333 613.07C51.0667 608.003 50.6667 527.603 50.9333 339.336C51.3333 75.3364 51.3333 72.6698 54 68.1364C55.4667 65.6031 58.9333 61.7364 61.7333 59.4698L66.9333 55.3364L178.133 54.9364L289.2 54.6698L290 49.6031C292.267 36.1364 298.8 21.7364 307.6 10.9364L312.133 5.33642L189.067 5.46976C121.333 5.60309 63.4667 6.13642 60.4 6.66976Z" fill="#666666"/>
</g>
<defs>
<clipPath id="clip0_2725_24115">
<rect width="682.667" height="682.667" fill="white"/>
</clipPath>
</defs>
</svg>
